<svg xmlns="http://www.w3.org/2000/svg" version="1.1" xmlns:xlink="http://www.w3.org/1999/xlink" xmlns:svgjs="http://svgjs.com/svgjs" width="1440" height="560" preserveAspectRatio="none" viewBox="0 0 1440 560"><g mask="url(&quot;#SvgjsMask1014&quot;)" fill="none"><rect width="1440" height="560" x="0" y="0" fill="#0e2a47"></rect><path d="M915.461032454333 55.82087298549897L850.0768599483904 131.03675936862388 990.676918837458 121.20504549144155z" fill="rgba(28, 83, 142, 0.4)" class="triangle-float3"></path><path d="M507.9763103713345 462.2601991009708L561.5080659230823 488.36938080669967 573.9059607058017 395.0171566262135z" fill="rgba(28, 83, 142, 0.4)" class="triangle-float3"></path><path d="M1267.1504130879032 528.5496534662503L1380.7556427732275 410.90799432195683 1263.113983628934 297.30276463663256 1149.5087539436097 414.94442378092606z" fill="rgba(28, 83, 142, 0.4)" class="triangle-float2"></path><path d="M800.613,676.291C861.991,677.501,925.939,650.958,952.271,595.502C976.29,544.916,941.546,491.124,910.738,444.361C884.093,403.916,848.865,369.48,800.613,365.3C743.878,360.386,682.005,373.758,651.611,421.915C619.583,472.661,628.641,537.939,658.971,589.718C688.947,640.892,741.318,675.122,800.613,676.291" fill="rgba(28, 83, 142, 0.4)" class="triangle-float1"></path><path d="M505.21065558323505 461.0458633796221L605.7367240787416 441.505575109066 485.67036731267893 360.5197948841155z" fill="rgba(28, 83, 142, 0.4)" class="triangle-float1"></path><path d="M265.41687808387036 395.7278171382467L147.06348975018517 364.01512231274864 115.35079492468716 482.36851064643383 233.70418325837235 514.0812054719319z" fill="rgba(28, 83, 142, 0.4)" class="triangle-float3"></path><path d="M1361.5097629160211 540.8252893386676L1489.1643151053993 448.26457585616646 1364.2409883072426 390.0118718879865z" fill="rgba(28, 83, 142, 0.4)" class="triangle-float3"></path><path d="M244.14226279542797 58.830541431160526L293.94785302084045 188.94905171779612 372.23415276682084 95.65107274461677z" fill="rgba(28, 83, 142, 0.4)" class="triangle-float1"></path><path d="M1503.178233668179 420.6304809676581L1367.3246079274106 373.85232625959196 1456.4000789601128 556.4841067084265z" fill="rgba(28, 83, 142, 0.4)" class="triangle-float3"></path><path d="M174.659,652.292C207.478,652.821,239.521,638.645,256.507,610.559C274.071,581.517,274.104,545.079,257.348,515.563C240.379,485.671,209.026,465.759,174.659,466.38C141.255,466.984,113.016,489.146,96.992,518.462C81.651,546.529,81.199,580.328,97.254,607.993C113.247,635.551,142.8,651.779,174.659,652.292" fill="rgba(28, 83, 142, 0.4)" class="triangle-float2"></path><path d="M129.84156845329784 168.18812893083836L180.3401548566195 49.535437361676884 68.23350952405765 61.318320587556244z" fill="rgba(28, 83, 142, 0.4)" class="triangle-float1"></path><path d="M95.603,213.238C128.584,212.97,164.755,209.781,182.457,181.952C201.16,152.55,196.066,114.01,177.47,84.54C160.078,56.978,128.15,42.628,95.603,44.307C65.781,45.846,43.306,67.17,27.167,92.295C9.123,120.387,-10.173,154.325,6.27,183.383C22.842,212.67,61.953,213.511,95.603,213.238" fill="rgba(28, 83, 142, 0.4)" class="triangle-float3"></path><path d="M1042.371648340651 470.6693481236265L1118.4648625423613 501.4130022692096 1126.5337366598808 371.9013538938529z" fill="rgba(28, 83, 142, 0.4)" class="triangle-float3"></path><path d="M62.47022290282339 449.7214385706096L-57.61523416925426 546.7753797204632 67.5283016928366 597.3366502024903z" fill="rgba(28, 83, 142, 0.4)" class="triangle-float3"></path><path d="M733.1736333640096 265.6258984065119L713.4184194907832 125.06024775373265 572.8527688380038 144.81546162695906 592.6079827112303 285.3811122797383z" fill="rgba(28, 83, 142, 0.4)" class="triangle-float1"></path><path d="M1241.0258253075992 342.8942087862948L1197.6634983823897 257.79085041972945 1112.5601400158241 301.15317734493914 1155.922466941034 386.2565357115045z" fill="rgba(28, 83, 142, 0.4)" class="triangle-float3"></path><path d="M1209.518,514.482C1248.244,514.205,1276.818,481.12,1293.804,446.317C1308.632,415.936,1305.037,381.53,1288.909,351.819C1271.868,320.426,1245.237,290.729,1209.518,291.045C1174.166,291.358,1149.61,322.253,1132.523,353.202C1116.153,382.853,1108.526,416.974,1123.118,447.539C1139.941,482.778,1170.47,514.761,1209.518,514.482" fill="rgba(28, 83, 142, 0.4)" class="triangle-float2"></path><path d="M1065.9443562293886 354.6079856733389L1098.6537871966868 431.6665760023967 1197.8869572066244 344.0731343869206z" fill="rgba(28, 83, 142, 0.4)" class="triangle-float2"></path></g><defs><mask id="SvgjsMask1014"><rect width="1440" height="560" fill="#ffffff"></rect></mask><style>
            @keyframes float1 {
                0%{transform: translate(0, 0)}
                50%{transform: translate(-10px, 0)}
                100%{transform: translate(0, 0)}
            }

            .triangle-float1 {
                animation: float1 5s infinite;
            }

            @keyframes float2 {
                0%{transform: translate(0, 0)}
                50%{transform: translate(-5px, -5px)}
                100%{transform: translate(0, 0)}
            }

            .triangle-float2 {
                animation: float2 4s infinite;
            }

            @keyframes float3 {
                0%{transform: translate(0, 0)}
                50%{transform: translate(0, -10px)}
                100%{transform: translate(0, 0)}
            }

            .triangle-float3 {
                animation: float3 6s infinite;
            }
        </style></defs></svg>